<?xml version="1.0" standalone="no"?>
<!DOCTYPE svg PUBLIC "-//W3C//DTD SVG 20010904//EN"
 "http://www.w3.org/TR/2001/REC-SVG-20010904/DTD/svg10.dtd">
<svg version="1.0" xmlns="http://www.w3.org/2000/svg"
 width="512.000000pt" height="512.000000pt" viewBox="0 0 512.000000 512.000000"
 preserveAspectRatio="xMidYMid meet">
<metadata>
Created by potrace 1.14, written by Peter Selinger 2001-2017
</metadata>
<g transform="translate(0.000000,512.000000) scale(0.100000,-0.100000)"
fill="#000000" stroke="none">
<path d="M2995 3960 c-61 -14 -122 -50 -163 -94 -40 -43 -71 -102 -177 -336
-24 -52 -59 -129 -78 -170 -19 -41 -96 -210 -172 -375 -215 -468 -299 -653
-344 -748 -22 -48 -41 -89 -41 -91 0 -2 -22 -51 -49 -108 -27 -56 -69 -148
-94 -203 -25 -55 -61 -135 -81 -177 -45 -97 -57 -152 -51 -220 5 -53 40 -135
73 -173 89 -104 252 -139 375 -80 83 39 121 84 182 211 30 62 55 116 55 118 0
3 22 51 49 108 58 124 73 157 211 458 59 129 128 279 154 333 25 55 46 100 46
102 0 3 53 118 127 275 19 41 52 113 73 160 36 80 51 113 145 315 20 44 45 98
55 120 10 22 29 65 43 95 55 119 59 206 14 304 -60 128 -219 208 -352 176z"/>
<path d="M1097 3799 c-107 -17 -127 -33 -573 -481 -387 -388 -425 -429 -458
-495 -49 -99 -66 -178 -62 -288 5 -124 48 -242 121 -330 65 -79 813 -818 851
-841 130 -80 301 -58 409 53 107 108 128 252 60 396 -10 22 -142 162 -324 344
-168 169 -316 320 -328 337 -32 42 -30 96 3 136 15 17 156 160 313 318 157
158 298 303 312 322 57 76 78 194 52 285 -48 166 -208 270 -376 244z"/>
<path d="M3890 3793 c-172 -44 -287 -225 -249 -392 21 -96 44 -123 375 -455
194 -195 326 -335 330 -351 17 -68 10 -76 -335 -423 -295 -296 -331 -336 -349
-385 -53 -139 -26 -272 75 -371 110 -109 274 -129 408 -50 60 35 866 849 897
906 108 197 99 441 -23 611 -45 64 -818 836 -869 869 -77 49 -171 64 -260 41z"/>
</g>
</svg>
